# xmcd CD database file
#
# Track frame offsets:
#	182
#	24857
#	53202
#	73117
#	103335
#	126062
#	148747
#	166215
#	190307
#	209157
#	232630
#	261072
#	285817
#	306347
#	321365
#
# Disc length: 4520 seconds
#
# Revision: 0
# Processed by: cddbd v1.5.1PL2 Copyright (c) Steve Scherf et al.
# Submitted via: CDex 1.51
#
DISCID=da11a60f
DTITLE=Various Artist - I've Got You Under My Skin
DYEAR=1993
DGENRE=Jazz
TTITLE0=Dinah Washington - I've Got You Under My Skin
TTITLE1=Miles Davis Quintet - 'Round Midnight
TTITLE2=Dinah Washington - I Could Write a Book
TTITLE3=Wes Montgomery - The Girl Next Door
TTITLE4=Bill Evans Trio - Some Other Time
TTITLE5=Toots Thielemans - Joy Spring
TTITLE6=Stan Getz and Paul Horn - Nature Boy
TTITLE7=Oscar Peterson Trio - Like Someone in Love
TTITLE8=Chet Baker Quartet - Dear Old Stockholm
TTITLE9=Dexter Gordon - I Should Care
TTITLE10=Dave Brubeck Quartet - Someday My Prince Will Come
TTITLE11=Art Blakely's Jazz Messengers -- One By One
TTITLE12=Ben Webster Quartet - Londonderry Air
TTITLE13=The Art Farmer Benny Golson Jazztet - Five Spot After Dark
TTITLE14=Dizzy Gillespie -- I Can't Get Started
EXTD=YEAR: 1993
EXTT0=
EXTT1=
EXTT2=
EXTT3=
EXTT4=
EXTT5=
EXTT6=
EXTT7=
EXTT8=
EXTT9=
EXTT10=
EXTT11=
EXTT12=
EXTT13=
EXTT14=
PLAYORDER=
